<svg width="1440" height="267" viewBox="0 0 1440 267" fill="none" xmlns="http://www.w3.org/2000/svg">
<g filter="url(#filter0_d_220_63)">
<path fill-rule="evenodd" clip-rule="evenodd" d="M1440 109.444L1380 105.796C1320 102.148 1200 94.8519 1080 105.796C960 116.741 840 145.926 720 145.926C600 145.926 480 116.741 360 120.389C240 124.037 120 160.519 60 178.759L0 197V-3.51667e-06H60C120 -3.51667e-06 240 -3.51667e-06 360 -3.51667e-06C480 -3.51667e-06 600 -3.51667e-06 720 -3.51667e-06C840 -3.51667e-06 960 -3.51667e-06 1080 -3.51667e-06C1200 -3.51667e-06 1320 -3.51667e-06 1380 -3.51667e-06H1440V109.444Z" fill="#94E127" fill-opacity="0.3" shape-rendering="crispEdges"/>
</g>
<defs>
<filter id="filter0_d_220_63" x="-20" y="0" width="1480" height="267" filterUnits="userSpaceOnUse" color-interpolation-filters="sRGB">
<feFlood flood-opacity="0" result="BackgroundImageFix"/>
<feColorMatrix in="SourceAlpha" type="matrix" values="0 0 0 0 0 0 0 0 0 0 0 0 0 0 0 0 0 0 127 0" result="hardAlpha"/>
<feOffset dy="50"/>
<feGaussianBlur stdDeviation="10"/>
<feComposite in2="hardAlpha" operator="out"/>
<feColorMatrix type="matrix" values="0 0 0 0 0.662348 0 0 0 0 0.975 0 0 0 0 0.5525 0 0 0 0.25 0"/>
<feBlend mode="normal" in2="BackgroundImageFix" result="effect1_dropShadow_220_63"/>
<feBlend mode="normal" in="SourceGraphic" in2="effect1_dropShadow_220_63" result="shape"/>
</filter>
</defs>
</svg>
